<?xml version="1.0" encoding="UTF-8"?>
<!DOCTYPE svg PUBLIC "-//W3C//DTD SVG 1.1//EN" "http://www.w3.org/Graphics/SVG/1.1/DTD/svg11.dtd">
<!-- Creator: CorelDRAW -->
<svg xmlns="http://www.w3.org/2000/svg" xml:space="preserve" width="1137px" height="599px" style="shape-rendering:geometricPrecision; text-rendering:geometricPrecision; image-rendering:optimizeQuality; fill-rule:evenodd; clip-rule:evenodd"
viewBox="0 0 1183.32 623.218"
 xmlns:xlink="http://www.w3.org/1999/xlink">
 <defs>
  <style type="text/css">
   <![CDATA[
    .str0 {stroke:#2B2A29;stroke-width:2.45918}
    .fil6 {fill:#2B2A29}
    .fil3 {fill:#A2D9F7}
    .fil8 {fill:#AF9778}
    .fil1 {fill:#B2B3B3}
    .fil7 {fill:#C5C6C6}
    .fil4 {fill:#D9DADA}
    .fil9 {fill:#E31E24}
    .fil5 {fill:#EBECEC}
    .fil2 {fill:#FEFEFE}
    .fil0 {fill:#F9F9F9}
   ]]>
  </style>
 </defs>
 <g id="Capa_x0020_1">
  <metadata id="CorelCorpID_0Corel-Layer"/>
  <g id="TAPA">
   <rect id="_250887064" class="fil0 str0" x="1.22941" y="1.94094" width="867.728" height="604.78" rx="52.5895" ry="52.5895"/>
   <circle id="_250886656" class="fil1 str0" cx="54.3874" cy="54.2229" r="23.6653"/>
   <circle id="_250878792" class="fil1 str0" cx="816.936" cy="54.2229" r="23.6653"/>
   <circle id="_250878696" class="fil1 str0" cx="54.3874" cy="553.824" r="23.6653"/>
   <circle id="_250878648" class="fil1 str0" cx="816.936" cy="553.824" r="23.6653"/>
  </g>
  <g id="BOMBA1">
   <g id="CUERPO1">
    <polygon id="_250878120" class="fil2 str0" points="353.355,283.087 353.355,319.899 395.427,319.899 395.427,309.382 "/>
    <polygon id="_250877976" class="fil2 str0" points="153.514,283.087 153.514,319.899 111.442,319.899 111.442,309.382 "/>
    <path id="_250878168" class="fil2 str0" d="M150.885 161.841c-7.26072,0 -13.148,5.88604 -13.148,13.148 0,5.11877 2.92642,9.55267 7.19555,11.7254l12.3451 6.37295c-5.79628,13.041 -9.02272,27.4776 -9.02272,42.6692l0 110.438 -13.1468 0c-7.26072,0 -13.148,5.88604 -13.148,13.1468 0,7.26072 5.88727,13.148 13.148,13.148l13.1468 0 15.0379 0 21.7748 0 0 -56.8082c10.7331,9.18871 23.3388,16.2539 37.1631,20.5452 -0.229933,1.53576 -0.349203,3.1084 -0.349203,4.70932 0,17.4257 14.1267,31.5537 31.5537,31.5537 17.4257,0 31.5537,-14.128 31.5537,-31.5537 0,-1.60092 -0.1205,-3.17357 -0.350433,-4.70932 13.8255,-4.29126 26.43,-11.3565 37.1631,-20.5452l0 51.5492 18.4057 0 18.4069 0 13.1468 0c7.26072,0 13.148,-5.88727 13.148,-13.148 0,-7.26072 -5.88727,-13.1468 -13.148,-13.1468l-13.1468 0 0 -105.179c0,-15.1006 -3.18832,-29.4536 -8.9182,-42.4331l12.2405 -6.32008c4.26913,-2.17145 7.19555,-6.60658 7.19555,-11.7254 0,-7.26072 -5.88727,-13.148 -13.148,-13.148 -2.51697,0 -4.86917,0.709472 -6.86848,1.93537l-13.0263 6.641c-19.2578,-24.4393 -49.1245,-40.1301 -82.6541,-40.1301 -33.4362,0 -63.2254,15.6047 -82.4894,39.9247l-13.191 -6.72462c-1.99931,-1.22713 -4.35151,-1.93537 -6.86971,-1.93537z"/>
    <circle id="_250877952" class="fil3 str0" cx="135.108" cy="359.341" r="7.88843"/>
    <circle id="_250877904" class="fil3 str0" cx="371.761" cy="354.082" r="7.88843"/>
    <circle id="_250878072" class="fil3 str0" cx="355.984" cy="175.278" r="7.88843"/>
    <circle id="_250878024" class="fil3 str0" cx="150.885" cy="175.278" r="7.88843"/>
    <ellipse id="CIRCULO1" class="fil4 str0" cx="253.589" cy="235.756" rx="94.5066" ry="94.6612"/>
    <rect id="_499849928" class="fil5 str0" x="158.901" y="372.489" width="15.7769" height="63.1075"/>
    <rect id="_499850144" class="fil5 str0" x="332.191" y="367.23" width="15.7769" height="68.3664"/>
    <path id="_499849616" class="fil6 str0" d="M153.514 435.596l26.2947 0 0 5.25895 -26.2947 0 0 -5.25895zm10.5179 31.5537l-5.25895 -15.7768 2.63009 0 0 -10.3962 10.5179 0 0 10.3962 2.62886 0 -5.25895 15.7768 -5.25895 0z"/>
    <path id="_499850288" class="fil6 str0" d="M326.933 435.596l26.2947 0 0 5.25895 -26.2947 0 0 -5.25895zm10.5179 31.5537l-5.25895 -15.7768 2.62886 0 0 -10.3962 10.5179 0 0 10.3962 2.63009 0 -5.25895 15.7768 -5.25895 0z"/>
   </g>
   <g id="EMBOLO1">
    <circle id="_499850216" class="fil5 str0" cx="253.589" cy="183.166" r="39.4422"/>
    <circle id="_499850168" class="fil5 str0" cx="299.211" cy="261.917" r="39.4422"/>
    <circle id="_499850504" class="fil5 str0" cx="208.046" cy="262.051" r="39.4422"/>
    <path id="_499850312" class="fil2 str0" d="M208.046 230.497c5.73234,0 11.1081,1.52838 15.7412,4.20027l-0.00122959 -0.00245918c6.93488,3.99124 15.6797,1.79889 19.5308,-4.89622 3.8523,-6.69388 1.35255,-15.3551 -5.58233,-19.3463l0.00245918 0c-9.38913,-5.46675 -15.7018,-15.6391 -15.7018,-27.287 0,-17.4257 14.128,-31.5537 31.5537,-31.5537 17.427,0 31.5537,14.128 31.5537,31.5537 0,11.6934 -6.36066,21.9014 -15.81,27.3522l0.00122959 0c-6.54756,3.80557 -8.71655,12.2885 -4.84581,18.948 3.86951,6.65945 12.3156,8.9723 18.8631,5.16673l-0.00245918 0.00368876c4.66137,-2.71616 10.0789,-4.27282 15.8617,-4.27282 17.427,0 31.5537,14.1267 31.5537,31.5537 0,17.427 -14.1267,31.5537 -31.5537,31.5537 -17.411,0 -31.5291,-14.1046 -31.5525,-31.5107l-0.00122959 0.00245918c-0.0479539,-7.71321 -6.31516,-13.9398 -14.0284,-13.9398 -7.74763,0 -14.0284,6.28074 -14.0284,14.0284 0,17.4257 -14.128,31.5537 -31.5537,31.5537 -17.427,0 -31.5537,-14.128 -31.5537,-31.5537 0,-17.427 14.1267,-31.5537 31.5537,-31.5537z"/>
    <circle id="_499850408" class="fil7 str0" cx="253.589" cy="235.756" r="5.25896"/>
   </g>
  </g>
  <g id="BOMBA2">
   <g id="CUERPO2">
    <polygon id="_499848920" class="fil2 str0" points="716.671,282.987 716.671,319.8 758.744,319.8 758.744,309.282 "/>
    <polygon id="_499848560" class="fil2 str0" points="516.831,282.987 516.831,319.8 474.76,319.8 474.76,309.282 "/>
    <path id="_499848728" class="fil2 str0" d="M514.203 161.742c-7.26072,0 -13.148,5.88604 -13.148,13.1468 0,5.11877 2.92642,9.5539 7.19555,11.7254l12.3438 6.37295c-5.79505,13.041 -9.02149,27.4776 -9.02149,42.6692l0 110.438 -13.1468 0c-7.26195,0 -13.148,5.88727 -13.148,13.148 0,7.26072 5.88604,13.1468 13.148,13.1468l13.1468 0 15.0366 0 21.776 0 0 -56.8082c10.7331,9.18994 23.3376,16.2552 37.1631,20.5452 -0.229933,1.53698 -0.350433,3.10963 -0.350433,4.70932 0,17.427 14.128,31.5537 31.5537,31.5537 17.427,0 31.5537,-14.1267 31.5537,-31.5537 0,-1.59969 -0.1205,-3.17234 -0.349203,-4.70932 13.8243,-4.29003 26.4288,-11.3552 37.1618,-20.5452l0 51.5492 18.4069 0 18.4057 0 13.148 0c7.26072,0 13.1468,-5.88604 13.1468,-13.1468 0,-7.26072 -5.88604,-13.148 -13.1468,-13.148l-13.148 0 0 -105.179c0,-15.0993 -3.18832,-29.4523 -8.91697,-42.4319l12.2405 -6.32008c4.26913,-2.17268 7.19432,-6.60781 7.19432,-11.7254 0,-7.26195 -5.88604,-13.148 -13.1468,-13.148 -2.51697,0 -4.86917,0.708243 -6.86848,1.93537l-13.0263 6.641c-19.2578,-24.4393 -49.1245,-40.1301 -82.6554,-40.1301 -33.435,0 -63.2254,15.6035 -82.4894,39.9247l-13.191 -6.72462c-1.99808,-1.22713 -4.35028,-1.93537 -6.86848,-1.93537z"/>
    <circle id="_499848872" class="fil3 str0" cx="498.425" cy="359.242" r="7.88843"/>
    <circle id="_499848800" class="fil3 str0" cx="735.078" cy="353.983" r="7.88843"/>
    <circle id="_499848752" class="fil3 str0" cx="719.302" cy="175.179" r="7.88843"/>
    <circle id="_499849136" class="fil3 str0" cx="514.202" cy="175.179" r="7.88843"/>
    <ellipse id="CIRCULO2" class="fil4 str0" cx="616.907" cy="235.657" rx="94.5066" ry="94.6612"/>
    <rect id="_499848296" class="fil5 str0" x="522.218" y="372.39" width="15.7769" height="63.1075"/>
    <rect id="_499847912" class="fil5 str0" x="695.508" y="367.131" width="15.7769" height="68.3664"/>
    <path id="_499847720" class="fil6 str0" d="M516.831 435.497l26.2947 0 0 5.25895 -26.2947 0 0 -5.25895zm10.5179 31.5537l-5.25895 -15.7768 2.63009 0 0 -10.3962 10.5179 0 0 10.3962 2.62886 0 -5.25895 15.7768 -5.25895 0z"/>
    <path id="_499847624" class="fil6 str0" d="M690.249 435.497l26.296 0 0 5.25895 -26.296 0 0 -5.25895zm10.5179 31.5537l-5.25895 -15.7768 2.63009 0 0 -10.3962 10.5179 0 0 10.3962 2.63009 0 -5.26018 15.7768 -5.25895 0z"/>
   </g>
   <g id="EMBOLO2">
    <circle id="_499848200" class="fil5 str0" cx="616.906" cy="183.067" r="39.4422"/>
    <circle id="_499847576" class="fil5 str0" cx="662.528" cy="261.818" r="39.4422"/>
    <circle id="_499847816" class="fil5 str0" cx="571.363" cy="261.952" r="39.4422"/>
    <path id="_499847984" class="fil2 str0" d="M571.362 230.398c5.73357,0 11.1093,1.52838 15.7424,4.2015l-0.00245918 -0.00245918c6.93488,3.99001 15.6809,1.79889 19.532,-4.89622 3.8523,-6.69388 1.35255,-15.3563 -5.58233,-19.3463l0.00122959 0c-9.38913,-5.46675 -15.7006,-15.6391 -15.7006,-27.287 0,-17.427 14.1267,-31.5537 31.5537,-31.5537 17.427,0 31.5537,14.1267 31.5537,31.5537 0,11.6934 -6.36066,21.9002 -15.81,27.351l0.00122959 0c-6.54756,3.8068 -8.71778,12.2897 -4.84704,18.948 3.87074,6.65945 12.3168,8.9723 18.8631,5.16673l-0.00122959 0.00491835c4.66014,-2.71739 10.0789,-4.27282 15.8617,-4.27282 17.427,0 31.5537,14.1267 31.5537,31.5537 0,17.4257 -14.1267,31.5537 -31.5537,31.5537 -17.4122,0 -31.5291,-14.1046 -31.5537,-31.5107l0 0.00245918c-0.0491835,-7.71321 -6.31516,-13.9411 -14.0284,-13.9411 -7.74886,0 -14.0296,6.28074 -14.0296,14.0284 0,17.427 -14.1267,31.5537 -31.5537,31.5537 -17.4257,0 -31.5537,-14.1267 -31.5537,-31.5537 0,-17.427 14.128,-31.5537 31.5537,-31.5537z"/>
    <circle id="_499847648" class="fil7 str0" cx="616.906" cy="235.657" r="5.25896"/>
   </g>
  </g>
  <rect id="FONDO_AGUA" class="fil5 str0" x="993.722" y="21.5312" width="132.01" height="560.504"/>
  <rect id="AGUA" class="fil3 str0" x="993.722" y="153.599" width="132.01" height="426.747"/>
  <path class="fil8 str0" d="M986.766 1.33533l3.0297 -0.0528723c4.24454,-0.0737753 6.66068,4.03059 6.65207,8.27267l-1.15458 570.664 130.218 0 0.576677 -571.817c0.00368876,-4.24577 2.26244,-7.32589 6.50329,-7.16727l3.62605 0.136484c4.24208,0.157387 6.1049,3.36415 6.1049,7.60746l0 571.241 0 23.1593 -23.1581 0 -115.793 0 -23.1581 0 0 -23.1593 0 -571.241c0,-4.24577 2.30671,-7.57057 6.55247,-7.64312z"/>
  <g id="VASIJA">
   <rect id="_497849088" class="fil3 str0" x="940.443" y="597.52" width="241.651" height="5.85821" rx="2.92888" ry="2.92888"/>
   <rect id="_497849064" class="fil7 str0" x="977.057" y="603.378" width="36.6138" height="18.3069"/>
   <rect id="_497849160" class="fil7 str0" x="1108.87" y="603.378" width="36.6138" height="18.3069"/>
  </g>
  <g id="LEDS">
   <circle id="LED2" class="fil9 str0" cx="1050" cy="614.665" r="7.32277"/>
   <circle id="LED1" class="fil9 str0" cx="1071.03" cy="614.665" r="7.32277"/>
  </g>
 </g>
 <script type="text/javascript" xlink:href="riego.js?version=2018.12.05"/>
</svg>
